# xmcd
#
# Track frame offsets:
#	150
#	21590
#	39817
#	60261
#	72772
#	99911
#	112020
#	131739
#	150721
#	170363
#	191384
#
# Disc length: 2698 seconds
# Revision: 0
# Processed by: cddbd v1.5.2PL0 Copyright (c) Steve Scherf et al.
# Submitted via: dBpowerAMP V12.0
#
DISCID=870a880b
DTITLE=Various Artist - American Folk Blues Festival '66
DYEAR=1966
DGENRE=Blues
TTITLE0=Roosevelt Sykes - Running the Boogie
TTITLE1=Otis Rush - All Your Love
TTITLE2=Little Brother Montgomery - I Keep on Drinking
TTITLE3=Sleepy John Estes - You Shouldn't Do It
TTITLE4=Otis Rush - My Own Fault
TTITLE5=Jr. Wells - Checkin' on My Baby
TTITLE6=Jr. Wells - a Tribute to Sonny Boy Williamson
TTITLE7=Sippy Wallace - Suitcase Blues
TTITLE8=Robert Pete Williams - Louise
TTITLE9=Big Joe Turner - Flip, Flop and Fly
TTITLE10=Big Joe Turner - Roll ' Em Pete
EXTD=
EXTT0=
EXTT1=
EXTT2=
EXTT3=
EXTT4=
EXTT5=
EXTT6=
EXTT7=
EXTT8=
EXTT9=
EXTT10=
PLAYORDER=
